<svg xmlns="http://www.w3.org/2000/svg" width="520" height="620" viewBox="0 0 520 620"><g filter="url(#g)"><rect width="520" height="620" fill="none"/></g><g fill="#D9B23C"><path d="M180 540 C140 380 160 240 240 200 C270 340 250 460 230 540z"/><path d="M280 540 C240 360 260 220 340 180 C370 320 350 440 330 540z"/></g><g fill="#7FA64B"><path d="M360 540 C330 400 350 280 420 260 C440 380 430 480 410 540z"/><path d="M130 540 C100 420 110 320 170 300 C190 400 180 480 170 540z"/></g><g fill="#F2E08C"><path d="M215 540 C185 400 200 280 265 245 C285 365 268 470 252 540z" opacity="0.8"/><path d="M295 540 C265 390 280 270 345 235 C365 355 348 460 332 540z" opacity="0.8"/></g><g fill="none" stroke="#5E4A1E" stroke-width="6" stroke-linecap="round"><path d="M250 200 C260 160 300 140 340 150"/></g><filter id="g"><feTurbulence type="fractalNoise" baseFrequency="0.9" numOctaves="2" stitchTiles="stitch" result="n"/><feColorMatrix in="n" type="saturate" values="0"/><feComponentTransfer><feFuncA type="linear" slope="0.06"/></feComponentTransfer><feComposite operator="over" in2="SourceGraphic"/></filter></svg>